<?xml version="1.0" encoding="UTF-8" standalone="no"?>
<!DOCTYPE svg PUBLIC "-//W3C//DTD SVG 1.1//EN"
 "http://www.w3.org/Graphics/SVG/1.1/DTD/svg11.dtd">
<!-- Generated by graphviz version 9.0.0 (20230911.1827)
 -->
<!-- Title: Database Structure Pages: 1 -->
<svg width="891pt" height="649pt"
 viewBox="0.00 0.00 890.86 649.00" xmlns="http://www.w3.org/2000/svg" xmlns:xlink="http://www.w3.org/1999/xlink">
<g id="graph0" class="graph" transform="scale(1 1) rotate(0) translate(4 645)">
<title>Database Structure</title>
<polygon fill="white" stroke="none" points="-4,4 -4,-645 886.86,-645 886.86,4 -4,4"/>
<text text-anchor="middle" x="441.43" y="-623.7" font-family="Helvetica,sans-Serif" font-size="14.00">ER Diagram: PSIRT</text>
<!-- comments -->
<g id="node1" class="node">
<title>comments</title>
<polygon fill="#dddddd" stroke="none" points="160.86,-478 160.86,-500 308.86,-500 308.86,-478 160.86,-478"/>
<polygon fill="none" stroke="black" points="160.86,-478 160.86,-500 308.86,-500 308.86,-478 160.86,-478"/>
<text text-anchor="start" x="204.86" y="-483.7" font-family="Times,serif" font-size="14.00">Comments</text>
<polygon fill="none" stroke="black" points="160.86,-456 160.86,-478 308.86,-478 308.86,-456 160.86,-456"/>
<text text-anchor="start" x="190.23" y="-462.7" font-family="Times,serif" font-size="14.00">comment_id:</text>
<text text-anchor="start" x="262.98" y="-462.7" font-family="Helvetica,sans-Serif" font-style="oblique" font-size="10.00">INT</text>
<polygon fill="none" stroke="black" points="160.86,-434 160.86,-456 308.86,-456 308.86,-434 160.86,-434"/>
<text text-anchor="start" x="186.11" y="-440.7" font-family="Times,serif" font-size="14.00">order_number:</text>
<text text-anchor="start" x="267.11" y="-440.7" font-family="Helvetica,sans-Serif" font-style="oblique" font-size="10.00">INT</text>
<polygon fill="none" stroke="black" points="160.86,-412 160.86,-434 308.86,-434 308.86,-412 160.86,-412"/>
<text text-anchor="start" x="163.61" y="-418.7" font-family="Times,serif" font-size="14.00">responder_name:</text>
<text text-anchor="start" x="257.36" y="-418.7" font-family="Helvetica,sans-Serif" font-style="oblique" font-size="10.00">VARCHAR</text>
<polygon fill="none" stroke="black" points="160.86,-390 160.86,-412 308.86,-412 308.86,-390 160.86,-390"/>
<text text-anchor="start" x="194.36" y="-396.7" font-family="Times,serif" font-size="14.00">comment:</text>
<text text-anchor="start" x="249.86" y="-396.7" font-family="Helvetica,sans-Serif" font-style="oblique" font-size="10.00">TEXT</text>
</g>
<!-- Orders -->
<g id="node6" class="node">
<title>Orders</title>
<polygon fill="none" stroke="black" points="778.86,-267 778.86,-303 832.86,-303 832.86,-267 778.86,-267"/>
<text text-anchor="middle" x="805.86" y="-280.2" font-family="Times,serif" font-size="14.00">Orders</text>
</g>
<!-- comments&#45;&gt;Orders -->
<g id="edge1" class="edge">
<title>comments:order_number&#45;&gt;Orders:order_number</title>
<path fill="none" stroke="#444444" stroke-dasharray="5,2" d="M309.86,-445C489.62,-445 689.1,-348.63 769.42,-305.48"/>
<polygon fill="#444444" stroke="#444444" points="779.85,-303.8 769.39,-305.49 776.51,-297.65 779.85,-303.8"/>
</g>
<!-- ip_addresses -->
<g id="node2" class="node">
<title>ip_addresses</title>
<polygon fill="#dddddd" stroke="none" points="176.86,-342 176.86,-364 292.86,-364 292.86,-342 176.86,-342"/>
<polygon fill="none" stroke="black" points="176.86,-342 176.86,-364 292.86,-364 292.86,-342 176.86,-342"/>
<text text-anchor="start" x="197.73" y="-347.7" font-family="Times,serif" font-size="14.00">IP_Addresses</text>
<polygon fill="none" stroke="black" points="176.86,-320 176.86,-342 292.86,-342 292.86,-320 176.86,-320"/>
<text text-anchor="start" x="186.11" y="-326.7" font-family="Times,serif" font-size="14.00">order_number:</text>
<text text-anchor="start" x="267.11" y="-326.7" font-family="Helvetica,sans-Serif" font-style="oblique" font-size="10.00">INT</text>
<polygon fill="none" stroke="black" points="176.86,-298 176.86,-320 292.86,-320 292.86,-298 176.86,-298"/>
<text text-anchor="start" x="179.73" y="-304.7" font-family="Times,serif" font-size="14.00">ip_address:</text>
<text text-anchor="start" x="241.23" y="-304.7" font-family="Helvetica,sans-Serif" font-style="oblique" font-size="10.00">VARCHAR</text>
</g>
<!-- ip_addresses&#45;&gt;Orders -->
<g id="edge2" class="edge">
<title>ip_addresses:order_number&#45;&gt;Orders:order_number</title>
<path fill="none" stroke="#444444" stroke-dasharray="5,2" d="M293.86,-331C471.91,-331 683.4,-303.06 768.07,-290.73"/>
<polygon fill="#444444" stroke="#444444" points="778.48,-292.74 768.07,-290.73 777.46,-285.81 778.48,-292.74"/>
</g>
<!-- orders -->
<g id="node3" class="node">
<title>orders</title>
<polygon fill="#dddddd" stroke="none" points="183.36,-592 183.36,-614 286.36,-614 286.36,-592 183.36,-592"/>
<polygon fill="none" stroke="black" points="183.36,-592 183.36,-614 286.36,-614 286.36,-592 183.36,-592"/>
<text text-anchor="start" x="216.48" y="-597.7" font-family="Times,serif" font-size="14.00">Orders</text>
<polygon fill="none" stroke="black" points="183.36,-570 183.36,-592 286.36,-592 286.36,-570 183.36,-570"/>
<text text-anchor="start" x="186.11" y="-576.7" font-family="Times,serif" font-size="14.00">order_number:</text>
<text text-anchor="start" x="267.11" y="-576.7" font-family="Helvetica,sans-Serif" font-style="oblique" font-size="10.00">INT</text>
<polygon fill="none" stroke="black" points="183.36,-548 183.36,-570 286.36,-570 286.36,-548 183.36,-548"/>
<text text-anchor="start" x="196.98" y="-554.7" font-family="Times,serif" font-size="14.00">type:</text>
<text text-anchor="start" x="223.98" y="-554.7" font-family="Helvetica,sans-Serif" font-style="oblique" font-size="10.00">VARCHAR</text>
<polygon fill="none" stroke="black" points="183.36,-526 183.36,-548 286.36,-548 286.36,-526 183.36,-526"/>
<text text-anchor="start" x="196.23" y="-532.7" font-family="Times,serif" font-size="14.00">state:</text>
<text text-anchor="start" x="224.73" y="-532.7" font-family="Helvetica,sans-Serif" font-style="oblique" font-size="10.00">VARCHAR</text>
</g>
<!-- people -->
<g id="node4" class="node">
<title>people</title>
<polygon fill="#dddddd" stroke="none" points="166.86,-250 166.86,-272 302.86,-272 302.86,-250 166.86,-250"/>
<polygon fill="none" stroke="black" points="166.86,-250 166.86,-272 302.86,-272 302.86,-250 166.86,-250"/>
<text text-anchor="start" x="216.48" y="-255.7" font-family="Times,serif" font-size="14.00">People</text>
<polygon fill="none" stroke="black" points="166.86,-228 166.86,-250 302.86,-250 302.86,-228 166.86,-228"/>
<text text-anchor="start" x="186.11" y="-234.7" font-family="Times,serif" font-size="14.00">order_number:</text>
<text text-anchor="start" x="267.11" y="-234.7" font-family="Helvetica,sans-Serif" font-style="oblique" font-size="10.00">INT</text>
<polygon fill="none" stroke="black" points="166.86,-206 166.86,-228 302.86,-228 302.86,-206 166.86,-206"/>
<text text-anchor="start" x="180.86" y="-212.7" font-family="Times,serif" font-size="14.00">last_name:</text>
<text text-anchor="start" x="240.11" y="-212.7" font-family="Helvetica,sans-Serif" font-style="oblique" font-size="10.00">VARCHAR</text>
<polygon fill="none" stroke="black" points="166.86,-184 166.86,-206 302.86,-206 302.86,-184 166.86,-184"/>
<text text-anchor="start" x="179.36" y="-190.7" font-family="Times,serif" font-size="14.00">first_name:</text>
<text text-anchor="start" x="241.61" y="-190.7" font-family="Helvetica,sans-Serif" font-style="oblique" font-size="10.00">VARCHAR</text>
<polygon fill="none" stroke="black" points="166.86,-162 166.86,-184 302.86,-184 302.86,-162 166.86,-162"/>
<text text-anchor="start" x="198.11" y="-168.7" font-family="Times,serif" font-size="14.00">role:</text>
<text text-anchor="start" x="222.86" y="-168.7" font-family="Helvetica,sans-Serif" font-style="oblique" font-size="10.00">VARCHAR</text>
<polygon fill="none" stroke="black" points="166.86,-140 166.86,-162 302.86,-162 302.86,-140 166.86,-140"/>
<text text-anchor="start" x="192.11" y="-146.7" font-family="Times,serif" font-size="14.00">phone:</text>
<text text-anchor="start" x="228.86" y="-146.7" font-family="Helvetica,sans-Serif" font-style="oblique" font-size="10.00">VARCHAR</text>
<polygon fill="none" stroke="black" points="166.86,-118 166.86,-140 302.86,-140 302.86,-118 166.86,-118"/>
<text text-anchor="start" x="169.61" y="-124.7" font-family="Times,serif" font-size="14.00">email_address:</text>
<text text-anchor="start" x="251.36" y="-124.7" font-family="Helvetica,sans-Serif" font-style="oblique" font-size="10.00">VARCHAR</text>
</g>
<!-- people&#45;&gt;Orders -->
<g id="edge3" class="edge">
<title>people:order_number&#45;&gt;Orders:order_number</title>
<path fill="none" stroke="#444444" stroke-dasharray="5,2" d="M303.86,-239C478.04,-239 684.81,-266.8 768.21,-279.18"/>
<polygon fill="#444444" stroke="#444444" points="777.44,-284.1 768.07,-279.16 778.48,-277.18 777.44,-284.1"/>
</g>
<!-- services -->
<g id="node5" class="node">
<title>services</title>
<polygon fill="#dddddd" stroke="none" points="170.86,-70 170.86,-92 298.86,-92 298.86,-70 170.86,-70"/>
<polygon fill="none" stroke="black" points="170.86,-70 170.86,-92 298.86,-92 298.86,-70 170.86,-70"/>
<text text-anchor="start" x="211.98" y="-75.7" font-family="Times,serif" font-size="14.00">Services</text>
<polygon fill="none" stroke="black" points="170.86,-48 170.86,-70 298.86,-70 298.86,-48 170.86,-48"/>
<text text-anchor="start" x="186.11" y="-54.7" font-family="Times,serif" font-size="14.00">order_number:</text>
<text text-anchor="start" x="267.11" y="-54.7" font-family="Helvetica,sans-Serif" font-style="oblique" font-size="10.00">INT</text>
<polygon fill="none" stroke="black" points="170.86,-26 170.86,-48 298.86,-48 298.86,-26 170.86,-26"/>
<text text-anchor="start" x="185.73" y="-32.7" font-family="Times,serif" font-size="14.00">date_created:</text>
<text text-anchor="start" x="257.73" y="-32.7" font-family="Helvetica,sans-Serif" font-style="oblique" font-size="10.00">DATE</text>
<polygon fill="none" stroke="black" points="170.86,-4 170.86,-26 298.86,-26 298.86,-4 170.86,-4"/>
<text text-anchor="start" x="173.73" y="-10.7" font-family="Times,serif" font-size="14.00">service_state:</text>
<text text-anchor="start" x="247.23" y="-10.7" font-family="Helvetica,sans-Serif" font-style="oblique" font-size="10.00">VARCHAR</text>
</g>
<!-- services&#45;&gt;Orders -->
<g id="edge4" class="edge">
<title>services:order_number&#45;&gt;Orders:order_number</title>
<path fill="none" stroke="#444444" stroke-dasharray="5,2" d="M299.86,-59C399.82,-59 670.89,-207.9 769.43,-263.98"/>
<polygon fill="#444444" stroke="#444444" points="776.24,-271.9 769.29,-263.9 779.71,-265.82 776.24,-271.9"/>
</g>
</g>
</svg>
